<svg width="60" height="59" viewBox="0 0 60 59" fill="none" xmlns="http://www.w3.org/2000/svg">
<path d="M58.7616 5.12378H55.3496V2.19406C55.3496 0.984102 54.351 0 53.1228 0H47.4078C46.1801 0 45.1805 0.984128 45.1805 2.19406V5.12378H32.9309L32.9314 2.19406C32.9314 0.984102 31.9318 0 30.7041 0H24.9891C23.7614 0 22.7623 0.984128 22.7623 2.19406V5.12378H19.3504C18.666 5.12378 18.1118 5.67423 18.1118 6.35277V16.3638H14.819V13.4305C14.819 12.2206 13.8204 11.2365 12.5922 11.2365H6.87679C5.64908 11.2365 4.65005 12.2206 4.65005 13.4305V16.3638H1.2386C0.554235 16.3638 0 16.9143 0 17.5928V32.4179C0 33.0969 0.554753 33.6469 1.2386 33.6469H40.6489C41.3332 33.6469 41.8875 33.0964 41.8875 32.4179V22.4063H58.7609C59.4452 22.4063 59.9995 21.8559 59.9995 21.1773L60 6.35225C60 5.67371 59.4452 5.12325 58.7614 5.12325L58.7616 5.12378ZM47.6588 2.45851H52.8724V5.12378H47.6588V2.45851ZM25.2401 2.45851H30.4537V5.12378H25.2401V2.45851ZM7.12831 13.6948H12.3419V16.3638H7.12831V13.6948ZM39.4112 31.1894H2.4776V18.8228H18.1127V21.178C18.1127 21.857 18.6675 22.407 19.3513 22.407H39.4115L39.4112 31.1894ZM57.523 19.9485H20.5894V17.617C20.5894 17.6088 20.594 17.6016 20.594 17.5934C20.594 17.5851 20.5894 17.5779 20.5894 17.5697V7.58237H23.9832C23.9894 7.58237 23.9946 7.58597 24.0013 7.58597H31.6921C31.6983 7.58597 31.7035 7.58237 31.7102 7.58237H46.4017C46.4079 7.58237 46.4131 7.58597 46.4198 7.58597H54.1106C54.1168 7.58597 54.122 7.58237 54.1287 7.58237H57.5225L57.523 19.9485Z" fill="#9096A4"/>
<path d="M13.7486 36.5933H8.03357C6.80585 36.5933 5.80683 37.5774 5.80683 38.7873V41.717H2.39485C1.71049 41.717 1.15625 42.2675 1.15625 42.946V57.7711C1.15625 58.4502 1.711 59.0001 2.39485 59.0001H41.8051C42.4895 59.0001 43.0437 58.4496 43.0437 57.7711L43.0442 42.946C43.0442 42.267 42.4895 41.717 41.8056 41.717H38.3936V38.7873C38.3936 37.5774 37.3951 36.5933 36.1669 36.5933H30.4519C29.2242 36.5933 28.2246 37.5774 28.2246 38.7873V41.717H15.9739V38.7873C15.9744 37.5774 14.9758 36.5933 13.7481 36.5933H13.7486ZM8.28455 39.0512H13.4971V41.7165H8.28455V39.0512ZM40.5674 56.5419H3.63384V44.1753H7.02764C7.03386 44.1753 7.03905 44.1789 7.04579 44.1789H14.736C14.7423 44.1789 14.7475 44.1753 14.7542 44.1753H29.4469C29.4532 44.1753 29.4583 44.1789 29.4651 44.1789H37.1559C37.1621 44.1789 37.1673 44.1753 37.174 44.1753H40.5678L40.5674 56.5419ZM30.7033 39.0512H35.9169V41.7165H30.7033V39.0512Z" fill="#9096A4"/>
</svg>
