<svg width="486" height="36" viewBox="0 0 486 36" fill="none" xmlns="http://www.w3.org/2000/svg">
<path d="M125 0H127V12H125V0Z" fill="#EEEEEE"/>
<rect x="232" width="2" height="12" fill="#EEEEEE"/>
<rect x="344" width="2" height="12" fill="#EEEEEE"/>
<rect x="456" width="2" height="12" fill="#EEEEEE"/>
<rect x="8" width="2" height="12" fill="#EEEEEE"/>
<path d="M3.06788 20.2H0.827875V19.08H4.34788V31H3.06788V20.2ZM11.9814 31.192C11.0534 31.192 10.232 30.936 9.51738 30.424C8.80271 29.912 8.24804 29.192 7.85338 28.264C7.45871 27.3253 7.26138 26.248 7.26138 25.032C7.26138 23.816 7.45871 22.744 7.85338 21.816C8.24804 20.888 8.79738 20.168 9.50138 19.656C10.216 19.144 11.0374 18.888 11.9654 18.888C12.8934 18.888 13.7094 19.144 14.4134 19.656C15.128 20.168 15.6827 20.888 16.0774 21.816C16.472 22.744 16.6694 23.816 16.6694 25.032C16.6694 26.248 16.472 27.3253 16.0774 28.264C15.6934 29.192 15.144 29.912 14.4294 30.424C13.7254 30.936 12.9094 31.192 11.9814 31.192ZM8.54138 25.032C8.54138 26.0133 8.68538 26.8773 8.97338 27.624C9.26138 28.3707 9.66138 28.952 10.1734 29.368C10.696 29.784 11.2987 29.992 11.9814 29.992C12.6534 29.992 13.2454 29.7893 13.7574 29.384C14.28 28.968 14.6854 28.3867 14.9734 27.64C15.2614 26.8827 15.4054 26.0133 15.4054 25.032C15.4054 24.0507 15.2614 23.1867 14.9734 22.44C14.6854 21.6933 14.28 21.1173 13.7574 20.712C13.2454 20.296 12.648 20.088 11.9654 20.088C11.2934 20.088 10.696 20.296 10.1734 20.712C9.66138 21.1173 9.26138 21.6933 8.97338 22.44C8.68538 23.1867 8.54138 24.0507 8.54138 25.032Z" fill="#767886"/>
<path d="M115.043 31.192C114.115 31.192 113.288 30.9573 112.563 30.488C111.848 30.008 111.342 29.3627 111.043 28.552L112.019 28.072C112.264 28.68 112.664 29.1653 113.219 29.528C113.774 29.8907 114.382 30.072 115.043 30.072C115.555 30.072 116.019 29.9493 116.435 29.704C116.851 29.4587 117.176 29.128 117.411 28.712C117.646 28.2853 117.763 27.8107 117.763 27.288C117.763 26.7547 117.64 26.28 117.395 25.864C117.16 25.4373 116.835 25.1067 116.419 24.872C116.014 24.6267 115.56 24.504 115.059 24.504C114.547 24.504 114.067 24.6213 113.619 24.856C113.171 25.0907 112.846 25.384 112.643 25.736L111.635 25.544L112.531 19.064H118.563V20.184H113.427L112.883 24.04C113.512 23.5813 114.259 23.352 115.123 23.352C115.87 23.352 116.542 23.528 117.139 23.88C117.736 24.232 118.2 24.712 118.531 25.32C118.872 25.9173 119.043 26.5733 119.043 27.288C119.043 28.024 118.867 28.6907 118.515 29.288C118.174 29.8747 117.699 30.3387 117.091 30.68C116.483 31.0213 115.8 31.192 115.043 31.192ZM125.942 31.192C125.014 31.192 124.193 30.936 123.478 30.424C122.764 29.912 122.209 29.192 121.814 28.264C121.42 27.3253 121.222 26.248 121.222 25.032C121.222 23.816 121.42 22.744 121.814 21.816C122.209 20.888 122.758 20.168 123.462 19.656C124.177 19.144 124.998 18.888 125.926 18.888C126.854 18.888 127.67 19.144 128.374 19.656C129.089 20.168 129.644 20.888 130.038 21.816C130.433 22.744 130.63 23.816 130.63 25.032C130.63 26.248 130.433 27.3253 130.038 28.264C129.654 29.192 129.105 29.912 128.39 30.424C127.686 30.936 126.87 31.192 125.942 31.192ZM122.502 25.032C122.502 26.0133 122.646 26.8773 122.934 27.624C123.222 28.3707 123.622 28.952 124.134 29.368C124.657 29.784 125.26 29.992 125.942 29.992C126.614 29.992 127.206 29.7893 127.718 29.384C128.241 28.968 128.646 28.3867 128.934 27.64C129.222 26.8827 129.366 26.0133 129.366 25.032C129.366 24.0507 129.222 23.1867 128.934 22.44C128.646 21.6933 128.241 21.1173 127.718 20.712C127.206 20.296 126.609 20.088 125.926 20.088C125.254 20.088 124.657 20.296 124.134 20.712C123.622 21.1173 123.222 21.6933 122.934 22.44C122.646 23.1867 122.502 24.0507 122.502 25.032Z" fill="#767886"/>
<path d="M221.209 20.2H218.969V19.08H222.489V31H221.209V20.2ZM230.122 31.192C229.194 31.192 228.373 30.936 227.658 30.424C226.943 29.912 226.389 29.192 225.994 28.264C225.599 27.3253 225.402 26.248 225.402 25.032C225.402 23.816 225.599 22.744 225.994 21.816C226.389 20.888 226.938 20.168 227.642 19.656C228.357 19.144 229.178 18.888 230.106 18.888C231.034 18.888 231.85 19.144 232.554 19.656C233.269 20.168 233.823 20.888 234.218 21.816C234.613 22.744 234.81 23.816 234.81 25.032C234.81 26.248 234.613 27.3253 234.218 28.264C233.834 29.192 233.285 29.912 232.57 30.424C231.866 30.936 231.05 31.192 230.122 31.192ZM226.682 25.032C226.682 26.0133 226.826 26.8773 227.114 27.624C227.402 28.3707 227.802 28.952 228.314 29.368C228.837 29.784 229.439 29.992 230.122 29.992C230.794 29.992 231.386 29.7893 231.898 29.384C232.421 28.968 232.826 28.3867 233.114 27.64C233.402 26.8827 233.546 26.0133 233.546 25.032C233.546 24.0507 233.402 23.1867 233.114 22.44C232.826 21.6933 232.421 21.1173 231.898 20.712C231.386 20.296 230.789 20.088 230.106 20.088C229.434 20.088 228.837 20.296 228.314 20.712C227.802 21.1173 227.402 21.6933 227.114 22.44C226.826 23.1867 226.682 24.0507 226.682 25.032ZM241.841 31.192C240.913 31.192 240.091 30.936 239.377 30.424C238.662 29.912 238.107 29.192 237.713 28.264C237.318 27.3253 237.121 26.248 237.121 25.032C237.121 23.816 237.318 22.744 237.713 21.816C238.107 20.888 238.657 20.168 239.361 19.656C240.075 19.144 240.897 18.888 241.825 18.888C242.753 18.888 243.569 19.144 244.273 19.656C244.987 20.168 245.542 20.888 245.937 21.816C246.331 22.744 246.529 23.816 246.529 25.032C246.529 26.248 246.331 27.3253 245.937 28.264C245.553 29.192 245.003 29.912 244.289 30.424C243.585 30.936 242.769 31.192 241.841 31.192ZM238.401 25.032C238.401 26.0133 238.545 26.8773 238.833 27.624C239.121 28.3707 239.521 28.952 240.033 29.368C240.555 29.784 241.158 29.992 241.841 29.992C242.513 29.992 243.105 29.7893 243.617 29.384C244.139 28.968 244.545 28.3867 244.833 27.64C245.121 26.8827 245.265 26.0133 245.265 25.032C245.265 24.0507 245.121 23.1867 244.833 22.44C244.545 21.6933 244.139 21.1173 243.617 20.712C243.105 20.296 242.507 20.088 241.825 20.088C241.153 20.088 240.555 20.296 240.033 20.712C239.521 21.1173 239.121 21.6933 238.833 22.44C238.545 23.1867 238.401 24.0507 238.401 25.032Z" fill="#767886"/>
<path d="M333.184 31.192C332.256 31.192 331.429 30.9573 330.704 30.488C329.989 30.008 329.482 29.3627 329.184 28.552L330.16 28.072C330.405 28.68 330.805 29.1653 331.36 29.528C331.914 29.8907 332.522 30.072 333.184 30.072C333.696 30.072 334.16 29.9493 334.576 29.704C334.992 29.4587 335.317 29.128 335.552 28.712C335.786 28.2853 335.904 27.8107 335.904 27.288C335.904 26.7547 335.781 26.28 335.536 25.864C335.301 25.4373 334.976 25.1067 334.56 24.872C334.154 24.6267 333.701 24.504 333.2 24.504C332.688 24.504 332.208 24.6213 331.76 24.856C331.312 25.0907 330.986 25.384 330.784 25.736L329.776 25.544L330.672 19.064H336.704V20.184H331.568L331.024 24.04C331.653 23.5813 332.4 23.352 333.264 23.352C334.01 23.352 334.682 23.528 335.28 23.88C335.877 24.232 336.341 24.712 336.672 25.32C337.013 25.9173 337.184 26.5733 337.184 27.288C337.184 28.024 337.008 28.6907 336.656 29.288C336.314 29.8747 335.84 30.3387 335.232 30.68C334.624 31.0213 333.941 31.192 333.184 31.192ZM344.083 31.192C343.155 31.192 342.334 30.936 341.619 30.424C340.904 29.912 340.35 29.192 339.955 28.264C339.56 27.3253 339.363 26.248 339.363 25.032C339.363 23.816 339.56 22.744 339.955 21.816C340.35 20.888 340.899 20.168 341.603 19.656C342.318 19.144 343.139 18.888 344.067 18.888C344.995 18.888 345.811 19.144 346.515 19.656C347.23 20.168 347.784 20.888 348.179 21.816C348.574 22.744 348.771 23.816 348.771 25.032C348.771 26.248 348.574 27.3253 348.179 28.264C347.795 29.192 347.246 29.912 346.531 30.424C345.827 30.936 345.011 31.192 344.083 31.192ZM340.643 25.032C340.643 26.0133 340.787 26.8773 341.075 27.624C341.363 28.3707 341.763 28.952 342.275 29.368C342.798 29.784 343.4 29.992 344.083 29.992C344.755 29.992 345.347 29.7893 345.859 29.384C346.382 28.968 346.787 28.3867 347.075 27.64C347.363 26.8827 347.507 26.0133 347.507 25.032C347.507 24.0507 347.363 23.1867 347.075 22.44C346.787 21.6933 346.382 21.1173 345.859 20.712C345.347 20.296 344.75 20.088 344.067 20.088C343.395 20.088 342.798 20.296 342.275 20.712C341.763 21.1173 341.363 21.6933 341.075 22.44C340.787 23.1867 340.643 24.0507 340.643 25.032ZM355.802 31.192C354.874 31.192 354.052 30.936 353.338 30.424C352.623 29.912 352.068 29.192 351.674 28.264C351.279 27.3253 351.082 26.248 351.082 25.032C351.082 23.816 351.279 22.744 351.674 21.816C352.068 20.888 352.618 20.168 353.322 19.656C354.036 19.144 354.858 18.888 355.786 18.888C356.714 18.888 357.53 19.144 358.234 19.656C358.948 20.168 359.503 20.888 359.898 21.816C360.292 22.744 360.49 23.816 360.49 25.032C360.49 26.248 360.292 27.3253 359.898 28.264C359.514 29.192 358.964 29.912 358.25 30.424C357.546 30.936 356.73 31.192 355.802 31.192ZM352.362 25.032C352.362 26.0133 352.506 26.8773 352.794 27.624C353.082 28.3707 353.482 28.952 353.994 29.368C354.516 29.784 355.119 29.992 355.802 29.992C356.474 29.992 357.066 29.7893 357.578 29.384C358.1 28.968 358.506 28.3867 358.794 27.64C359.082 26.8827 359.226 26.0133 359.226 25.032C359.226 24.0507 359.082 23.1867 358.794 22.44C358.506 21.6933 358.1 21.1173 357.578 20.712C357.066 20.296 356.468 20.088 355.786 20.088C355.114 20.088 354.516 20.296 353.994 20.712C353.482 21.1173 353.082 21.6933 352.794 22.44C352.506 23.1867 352.362 24.0507 352.362 25.032Z" fill="#767886"/>
<path d="M437.998 20.2H435.758V19.08H439.278V31H437.998V20.2ZM446.911 31.192C445.983 31.192 445.162 30.936 444.447 30.424C443.732 29.912 443.178 29.192 442.783 28.264C442.388 27.3253 442.191 26.248 442.191 25.032C442.191 23.816 442.388 22.744 442.783 21.816C443.178 20.888 443.727 20.168 444.431 19.656C445.146 19.144 445.967 18.888 446.895 18.888C447.823 18.888 448.639 19.144 449.343 19.656C450.058 20.168 450.612 20.888 451.007 21.816C451.402 22.744 451.599 23.816 451.599 25.032C451.599 26.248 451.402 27.3253 451.007 28.264C450.623 29.192 450.074 29.912 449.359 30.424C448.655 30.936 447.839 31.192 446.911 31.192ZM443.471 25.032C443.471 26.0133 443.615 26.8773 443.903 27.624C444.191 28.3707 444.591 28.952 445.103 29.368C445.626 29.784 446.228 29.992 446.911 29.992C447.583 29.992 448.175 29.7893 448.687 29.384C449.21 28.968 449.615 28.3867 449.903 27.64C450.191 26.8827 450.335 26.0133 450.335 25.032C450.335 24.0507 450.191 23.1867 449.903 22.44C449.615 21.6933 449.21 21.1173 448.687 20.712C448.175 20.296 447.578 20.088 446.895 20.088C446.223 20.088 445.626 20.296 445.103 20.712C444.591 21.1173 444.191 21.6933 443.903 22.44C443.615 23.1867 443.471 24.0507 443.471 25.032ZM458.63 31.192C457.702 31.192 456.88 30.936 456.166 30.424C455.451 29.912 454.896 29.192 454.502 28.264C454.107 27.3253 453.91 26.248 453.91 25.032C453.91 23.816 454.107 22.744 454.502 21.816C454.896 20.888 455.446 20.168 456.15 19.656C456.864 19.144 457.686 18.888 458.614 18.888C459.542 18.888 460.358 19.144 461.062 19.656C461.776 20.168 462.331 20.888 462.726 21.816C463.12 22.744 463.318 23.816 463.318 25.032C463.318 26.248 463.12 27.3253 462.726 28.264C462.342 29.192 461.792 29.912 461.078 30.424C460.374 30.936 459.558 31.192 458.63 31.192ZM455.19 25.032C455.19 26.0133 455.334 26.8773 455.622 27.624C455.91 28.3707 456.31 28.952 456.822 29.368C457.344 29.784 457.947 29.992 458.63 29.992C459.302 29.992 459.894 29.7893 460.406 29.384C460.928 28.968 461.334 28.3867 461.622 27.64C461.91 26.8827 462.054 26.0133 462.054 25.032C462.054 24.0507 461.91 23.1867 461.622 22.44C461.334 21.6933 460.928 21.1173 460.406 20.712C459.894 20.296 459.296 20.088 458.614 20.088C457.942 20.088 457.344 20.296 456.822 20.712C456.31 21.1173 455.91 21.6933 455.622 22.44C455.334 23.1867 455.19 24.0507 455.19 25.032ZM470.349 31.192C469.421 31.192 468.599 30.936 467.885 30.424C467.17 29.912 466.615 29.192 466.221 28.264C465.826 27.3253 465.629 26.248 465.629 25.032C465.629 23.816 465.826 22.744 466.221 21.816C466.615 20.888 467.165 20.168 467.869 19.656C468.583 19.144 469.405 18.888 470.333 18.888C471.261 18.888 472.077 19.144 472.781 19.656C473.495 20.168 474.05 20.888 474.445 21.816C474.839 22.744 475.037 23.816 475.037 25.032C475.037 26.248 474.839 27.3253 474.445 28.264C474.061 29.192 473.511 29.912 472.797 30.424C472.093 30.936 471.277 31.192 470.349 31.192ZM466.909 25.032C466.909 26.0133 467.053 26.8773 467.341 27.624C467.629 28.3707 468.029 28.952 468.541 29.368C469.063 29.784 469.666 29.992 470.349 29.992C471.021 29.992 471.613 29.7893 472.125 29.384C472.647 28.968 473.053 28.3867 473.341 27.64C473.629 26.8827 473.773 26.0133 473.773 25.032C473.773 24.0507 473.629 23.1867 473.341 22.44C473.053 21.6933 472.647 21.1173 472.125 20.712C471.613 20.296 471.015 20.088 470.333 20.088C469.661 20.088 469.063 20.296 468.541 20.712C468.029 21.1173 467.629 21.6933 467.341 22.44C467.053 23.1867 466.909 24.0507 466.909 25.032ZM480.451 27.592H477.043V26.392H480.451V23H481.651V26.392H485.043V27.592H481.651V31H480.451V27.592Z" fill="#767886"/>
</svg>
